<svg width="104" height="23" viewBox="0 0 104 23" fill="none" xmlns="http://www.w3.org/2000/svg">
				<path d="M9.31837 10.5422C9.31837 11.3671 9.18528 12.1144 8.91781 12.7634C8.65479 13.4015 8.26641 13.9088 7.76079 14.2713C7.25783 14.6319 6.64209 14.8219 5.93326 14.8358C5.47041 14.8358 4.97399 14.7339 4.45727 14.5328C3.95055 14.3358 3.49771 13.9895 3.11121 13.5036C2.72738 13.0213 2.49843 12.371 2.4305 11.5706L2.42941 11.5603C2.41555 11.4605 2.40862 11.3062 2.40862 11.1015C2.40862 10.0775 2.70352 9.24391 3.2847 8.62381C3.86549 8.004 4.597 7.64216 5.45872 7.54809C6.60644 7.55007 7.61997 7.87309 8.55854 8.50834L8.82334 8.71749V6.06249L8.77887 6.00377C7.98122 5.47596 6.80706 5.20829 5.24116 5.20829C4.66483 5.21998 4.07394 5.35852 3.46354 5.61975C2.85453 5.88058 2.2877 6.26837 1.76792 6.77261C1.24644 7.27844 0.818848 7.92864 0.491467 8.70531C0.164384 9.48118 0 10.3882 0 11.401L0.00108929 11.4137C0.0395115 12.0158 0.168741 12.6413 0.38442 13.2729C0.601188 13.9081 0.939561 14.527 1.38964 15.1121C1.84456 15.7039 2.44981 16.1884 3.18845 16.5652C3.92738 16.9426 4.81159 17.1622 5.8166 17.1622H5.82116C7.16158 17.1622 8.29691 16.8337 9.19568 16.1728C10.0876 15.5167 10.7135 14.7296 11.1196 13.8264C11.5228 12.929 11.6952 12.1075 11.6952 11.3783V0.327786H9.31857V10.5422H9.31837Z" fill="#28313E"/>
				<path d="M21.775 11.4526C21.5538 12.5621 21.1747 13.4024 20.6484 13.9502C20.1331 14.4866 19.331 14.7693 18.2686 14.7907C17.5684 14.7907 16.9561 14.6263 16.4485 14.3019C15.9385 13.9762 15.5418 13.5427 15.2692 13.0135C14.9937 12.4786 14.8394 11.9099 14.8111 11.333C14.8111 10.6235 14.9501 9.9676 15.2245 9.38324C15.4956 8.80562 15.8903 8.34238 16.3977 8.00658C16.9025 7.67227 17.5015 7.50273 18.178 7.50273C18.8716 7.50273 19.3813 7.58958 19.6929 7.7608C19.9489 7.90141 20.1981 8.08233 20.4359 8.30019L14.9675 11.3221L16.0363 13.3159L23.8782 8.9604L23.789 8.78928C23.1509 7.5672 22.3769 6.64824 21.4884 6.05774C20.5951 5.46408 19.4811 5.16304 18.178 5.16304C17.5105 5.16304 16.8236 5.2887 16.1363 5.53647C15.4476 5.78473 14.8035 6.17093 14.222 6.68458C13.6381 7.20051 13.1639 7.86408 12.8131 8.65679C12.4626 9.4487 12.2849 10.3719 12.2849 11.401C12.2849 12.4238 12.5568 13.3917 13.0932 14.2776C13.6279 15.1612 14.3538 15.8659 15.251 16.3852C16.1496 16.9053 17.1173 17.1623 18.1272 17.1623H18.1284H18.1296C19.0901 17.1623 19.9615 16.9787 20.72 16.6372C21.4771 16.2965 22.1221 15.8463 22.6369 15.2926C23.1496 14.7412 23.5402 14.1541 23.7985 13.5446C24.0577 12.9324 24.1951 12.3384 24.2067 11.7773L24.2103 11.6015L21.8114 11.2694L21.775 11.4526Z" fill="#28313E"/>
				<path d="M30.1633 10.0501C29.7716 9.95611 29.3933 9.86461 29.028 9.77628C28.6718 9.68983 28.3271 9.58397 28.0035 9.46118C27.6931 9.34383 27.437 9.20044 27.2423 9.03517C27.0716 8.89019 26.9788 8.72937 26.9591 8.5438C26.9612 8.30069 27.0451 8.11462 27.2156 7.97767C27.3988 7.83051 27.6735 7.75466 28.0322 7.75466H33.3817V5.37803H28.4278C27.3648 5.37803 26.4318 5.63025 25.6546 6.08904C24.844 6.56773 24.4329 7.4155 24.433 8.5942C24.457 9.47098 24.7458 10.1734 25.2912 10.672C25.8155 11.1517 26.6384 11.5863 27.7462 11.9617C27.7989 11.9767 28.1937 12.0946 28.931 12.3127C29.6598 12.5286 30.1883 12.7044 30.5016 12.8344C30.7998 12.9584 31.0477 13.113 31.2381 13.293C31.4061 13.4518 31.4883 13.6335 31.4896 13.8479C31.4737 14.1447 31.3775 14.3346 31.1958 14.428C30.9821 14.5382 30.7153 14.6029 30.4022 14.6365C30.3318 14.6091 30.2678 14.5874 30.2074 14.5874H24.3703V16.865H30.1622C32.5454 16.865 33.8266 15.8465 33.97 13.8047L33.9705 13.7992C33.9705 12.8783 33.6599 12.108 33.0474 11.5017C32.4503 10.9103 31.4825 10.4253 30.1633 10.0501Z" fill="#28313E"/>
				<path d="M37.8379 5.37813H35.4613V16.8652H37.8379V5.37813Z" fill="#28313E"/>
				<path d="M36.7338 1.66583C36.3623 1.66583 36.0349 1.79942 35.7605 2.06283C35.4876 2.32495 35.3361 2.65085 35.3102 3.03111L35.3097 3.04468C35.3097 3.48485 35.4596 3.8458 35.7551 4.11713C36.0457 4.3842 36.3921 4.51957 36.7846 4.51957C37.157 4.51957 37.4785 4.38925 37.7398 4.13228C38.0022 3.87442 38.1353 3.52555 38.1353 3.09548C38.1353 2.68769 37.9933 2.34317 37.7134 2.07174C37.4351 1.80249 37.1055 1.66583 36.7338 1.66583Z" fill="#28313E"/>
				<path d="M50.9067 8.42269C50.6093 7.77545 50.1983 7.2007 49.6848 6.71448C49.1715 6.22856 48.5725 5.84721 47.9043 5.58113C47.2368 5.31524 46.5098 5.17463 45.7406 5.16304C45.0938 5.16304 44.4253 5.27167 43.7538 5.48596C43.0781 5.70154 42.433 6.05428 41.8366 6.53465C41.236 7.0184 40.7414 7.66127 40.3668 8.44536C39.9922 9.22955 39.8023 10.1688 39.8023 11.2371C39.8023 12.2685 40.0491 13.2387 40.5359 14.121C41.0231 15.0044 41.713 15.7229 42.5864 16.2564C43.4589 16.7896 44.4391 17.0836 45.509 17.1303C46.442 17.1303 47.4142 16.8824 48.442 16.3936L48.5328 16.3398V13.739L48.2569 13.9138C47.2641 14.4956 46.406 14.7906 45.6843 14.7906C44.9865 14.7906 44.3817 14.6331 43.8753 14.3225C43.3666 14.0106 42.9717 13.6007 42.6962 13.1042C42.4194 12.6057 42.2657 12.0934 42.2366 11.5815C42.2361 11.4392 42.22 11.3135 42.1871 11.2068C42.2054 10.3461 42.3821 9.6312 42.7121 9.08161C43.0438 8.52944 43.4797 8.12511 44.0074 7.87963C44.5455 7.62949 45.1439 7.50254 45.7858 7.50254C46.3366 7.50254 46.8606 7.65404 47.3424 7.95301C47.8253 8.25276 48.1904 8.69441 48.4868 9.2658C48.7858 9.84213 48.929 10.5237 48.929 11.2878V16.7004C48.929 17.3107 48.8071 17.8574 48.5073 18.3252C48.207 18.7942 47.7977 19.1627 47.2615 19.4203C46.7184 19.681 46.1084 19.8132 45.4338 19.8132C44.9244 19.8132 44.4432 19.7715 43.9959 19.6894C43.5431 19.6062 42.9652 19.4623 42.2742 19.2617L42.0822 19.2057L41.472 21.4312L41.6468 21.4724C42.9013 21.9109 44.2011 22.1136 45.509 22.1136H45.5099H45.5109C46.7572 22.1136 47.801 21.871 48.6134 21.3879C49.424 20.9057 50.0384 20.3257 50.4399 19.6444C50.8349 18.9737 51.091 18.3315 51.221 17.726C51.3495 17.1279 51.4046 16.6303 51.4046 16.2372V10.5422L51.4143 10.53C51.3677 9.77776 51.2036 9.06873 50.9067 8.42269Z" fill="#28313E"/>
				<path d="M59.3916 5.59905C58.6316 5.26751 57.9153 5.08114 57.256 5.08114C57.2559 5.08114 57.2557 5.08114 57.2555 5.08114C56.3497 5.08114 55.5035 5.35792 54.7406 5.78591C53.9754 6.21549 53.3288 6.80915 52.8928 7.53244C52.456 8.25741 52.1967 9.06705 52.1967 9.92066V16.8653H54.6724V9.96581C54.6724 9.2751 54.951 8.69689 55.4414 8.1978C55.9306 7.69969 56.533 7.45747 57.2356 7.45738C57.9765 7.47857 58.5534 7.74624 59.0267 8.27573C59.4974 8.80255 59.7227 9.43394 59.7227 10.1523V16.8652H62.1984V10.107C62.1984 8.96178 61.922 7.99024 61.3698 7.23764C60.822 6.49128 60.1588 5.93366 59.3916 5.59905Z" fill="#28313E"/>
				<path d="M84.2227 5.87286C83.3082 5.4213 82.3429 5.18255 81.3495 5.16304C80.3896 5.16304 79.4411 5.41744 78.5307 5.9193C77.6206 6.42077 76.8705 7.12465 76.3013 8.01133C75.7365 8.89088 75.4393 9.88382 75.4174 10.9659L75.3636 11.0109L75.3659 11.1063C75.3851 11.9141 75.544 12.6859 75.8383 13.4002C76.1333 14.1161 76.5689 14.7651 77.133 15.3293C77.6974 15.8937 78.3792 16.3062 79.1592 16.6219C79.9384 16.937 80.816 17.0632 81.7675 17.0632H81.7712H81.7749C82.9322 17.0632 83.9527 16.716 84.808 16.0925C85.658 15.4732 86.3074 14.7107 86.738 13.7933C87.1665 12.8799 87.3837 11.9619 87.3837 11.0478C87.3837 9.8347 87.0846 8.77354 86.4948 7.88567C85.9072 7.00146 85.1427 6.3269 84.2227 5.87286ZM84.8352 10.8698C84.8352 11.8061 84.6864 12.5774 84.3929 13.1625C84.1049 13.7369 83.7101 14.155 83.2201 14.4054C82.7193 14.661 82.1374 14.7907 81.4907 14.7907C80.245 14.7907 79.3349 14.412 78.7859 13.6651C78.2228 12.8997 77.9374 11.9895 77.9373 10.9665C77.9551 10.4094 78.0912 9.86094 78.3416 9.3366C78.5884 8.81988 78.9732 8.38357 79.4852 8.03975C79.9946 7.69801 80.6395 7.51739 81.4022 7.50273C82.3753 7.50313 83.1885 7.81318 83.8193 8.42447C84.4509 9.03665 84.7927 9.86213 84.8352 10.8698Z" fill="#28313E"/>
				<path d="M90.916 0.22876H88.4403V16.8652H90.916V0.22876Z" fill="#28313E"/>
				<path d="M101.314 0.327786V10.5421C101.314 11.3673 101.22 12.1146 100.952 12.7632C100.689 13.4014 100.32 13.9087 99.8146 14.2711C99.3114 14.6318 98.7054 14.8218 97.9968 14.8357C97.5338 14.8357 97.0422 14.7338 96.5257 14.5327C96.0186 14.3357 95.5682 13.9894 95.182 13.5034C94.7979 13.021 94.5702 12.3708 94.5026 11.5705L94.502 11.5602C94.4882 11.4604 94.4815 11.3061 94.4815 11.1014C94.4815 10.0773 94.7764 9.24361 95.3575 8.62371C95.9386 8.00381 96.6702 7.64186 97.5317 7.54789C98.6795 7.54987 99.7037 7.87289 100.642 8.50815L100.918 8.71729V6.06249L100.863 6.00377C100.065 5.47596 98.8854 5.20829 97.3198 5.20829C96.7431 5.21998 96.1496 5.35852 95.5394 5.61975C94.9302 5.88068 94.362 6.26847 93.8424 6.77261C93.3207 7.27864 92.8925 7.92894 92.5654 8.70531C92.2381 9.48147 92.0732 10.3885 92.0732 11.401L92.0741 11.4137C92.1128 12.0164 92.2419 12.642 92.4575 13.273C92.6746 13.9086 93.013 14.5275 93.4626 15.1121C93.9176 15.7038 94.5229 16.1884 95.2616 16.5652C96.0005 16.9426 96.8847 17.1622 97.8894 17.1622H97.894C99.2343 17.1622 100.37 16.8337 101.268 16.1728C102.16 15.5169 102.797 14.7297 103.203 13.8265C103.606 12.9291 103.79 12.1076 103.79 11.3783V0.327786H101.314Z" fill="#28313E"/>
				<path d="M65.4663 8.28374V3.38501L62.9906 0V4.89863L65.4663 8.28374Z" fill="#F15D26"/>
				<path d="M74.866 11.2116L74.8664 11.2022C74.8664 10.1893 74.7005 9.28431 74.3735 8.50834C74.0461 7.73177 73.6158 7.08236 73.0943 6.57653C72.5746 6.07229 72.0023 5.685 71.3931 5.42406C70.7827 5.16293 70.1809 5.02469 69.6003 5.01291C68.0386 5.01291 66.7957 5.28067 65.9978 5.80848L65.8623 5.8674V8.5224L66.2182 8.31315C67.1568 7.6778 68.2378 7.35478 69.3855 7.3529C70.2472 7.44687 70.9903 7.80891 71.5712 8.42862C72.1524 9.04872 72.453 9.88233 72.453 10.9064C72.453 11.1109 72.449 11.2653 72.435 11.3649L72.4354 11.3688C72.4337 11.3881 72.4297 11.4187 72.4297 11.4187H74.8482C74.8554 11.3197 74.8615 11.2824 74.866 11.2116Z" fill="#0088FF"/>
				<path d="M68.9151 14.6405C68.2023 14.6264 67.5972 14.4364 67.0942 14.076C66.5887 13.7137 66.1882 13.2064 65.925 12.5681C65.7805 12.2173 65.6513 11.8368 65.58 11.4318C65.5193 11.0875 65.4663 10.7258 65.4663 10.347V9.17498L62.9906 5.78986V11.1831C62.9906 11.2647 63.0165 11.3479 63.0224 11.4319C63.0695 12.098 63.3104 12.8374 63.6684 13.6346C64.0744 14.5374 64.7338 15.3266 65.6258 15.9826C66.509 16.6321 67.6448 16.9648 68.9322 16.9764V14.6395C68.9322 14.6396 68.9282 14.6405 68.9151 14.6405Z" fill="#1FB899"/>
				<path d="M69.049 16.9642H69.0512C70.0561 16.8652 70.9403 16.746 71.6792 16.3686C72.4178 15.9917 73.023 15.5046 73.4778 14.9131C73.928 14.3278 74.2661 13.704 74.4828 13.0691C74.6731 12.5119 74.7956 11.9138 74.8483 11.4187H72.4298C72.3561 12.2109 72.1304 12.831 71.7557 13.302C71.3693 13.7876 70.8941 14.1374 70.3873 14.3344C69.8852 14.5298 69.4272 14.634 68.9321 14.6396V16.9765C69.0311 16.9767 69.0232 16.9643 69.0466 16.9643H69.049V16.9642Z" fill="#EFCD17"/>
			</svg>